<svg width="135" height="40" viewBox="0 0 135 40" fill="none" xmlns="http://www.w3.org/2000/svg">
<path d="M16.0507 0.534431C16.1055 0.438353 16.1983 0.370398 16.3068 0.348586C16.6595 0.277653 17.4874 0.118191 18.0733 0.060803C18.5562 0.0135095 19.216 0.00210261 19.6273 5.06838e-06C19.8395 -0.0010769 20.0098 0.171209 20.0098 0.383273V24.1292C20.0098 24.343 19.8364 24.5163 19.6225 24.5163H16.5242C16.3103 24.5163 16.1369 24.343 16.1369 24.1292V8.78706C16.1369 8.39768 15.6265 8.25199 15.4207 8.58265L11.8338 14.3482C11.7139 14.541 11.4544 14.5897 11.2726 14.4535L10.9987 14.2483C10.9797 14.2341 10.962 14.2181 10.9459 14.2006L7.62688 10.5922C7.46414 10.4153 7.18084 10.4277 7.0399 10.6224C5.08493 13.3234 4.0194 16.5729 4.00217 19.9179C3.98375 23.4918 5.16306 26.969 7.35205 29.795C9.54105 32.621 12.6137 34.6331 16.08 35.5104C19.5463 36.3878 23.2068 36.0799 26.4777 34.6359C29.7485 33.1918 32.4415 30.6948 34.1272 27.5429C35.8129 24.391 36.3942 20.7657 35.7785 17.2451C35.1627 13.7246 33.3854 10.5114 30.7298 8.11802C29.2146 6.75235 27.52 5.70677 25.6813 5.01431C25.4335 4.92097 25.1736 5.10741 25.1736 5.37213V24.1292C25.1736 24.343 25.0002 24.5163 24.7863 24.5163H21.688C21.4741 24.5163 21.3007 24.343 21.3007 24.1292V0.415689C21.3007 0.191268 21.4911 0.0135256 21.7147 0.0339342C26.0269 0.427523 30.1933 2.24838 33.4099 5.14745C36.7293 8.1392 38.951 12.1556 39.7206 16.5564C40.4903 20.9571 39.7637 25.4886 37.6566 29.4285C35.5495 33.3684 32.1832 36.4897 28.0946 38.2948C24.006 40.0998 19.4305 40.4847 15.0976 39.388C10.7647 38.2913 6.92387 35.7761 4.18762 32.2436C1.45138 28.7111 -0.022755 24.3647 0.000265584 19.8973C0.0229034 15.5042 1.49204 11.2429 4.17737 7.77017C4.41271 7.45778 4.97701 6.72272 5.422 6.25426C5.78146 5.87584 6.31936 5.4016 6.63941 5.12631C6.79038 4.99646 7.01472 5.00596 7.15657 5.1457L10.808 8.74279C10.9891 8.92125 11.2903 8.87968 11.4163 8.65883L16.0507 0.534431Z" fill="white"/>
<path d="M77.5379 17.2872L74.4977 11.6732H74.0417V17.2872H69.7855V2.06479H76.4956C77.7261 2.06479 78.7684 2.28071 79.6226 2.71255C80.4767 3.12999 81.121 3.71298 81.5553 4.4615C81.9896 5.19563 82.2067 6.02332 82.2067 6.94458C82.2067 7.981 81.9172 8.89506 81.3381 9.68676C80.7735 10.4641 79.9411 11.0183 78.8408 11.3493L82.2936 17.2872H77.5379ZM74.0417 8.7799H76.1481C76.7272 8.7799 77.1615 8.64315 77.451 8.36965C77.7406 8.09615 77.8854 7.7003 77.8854 7.18209C77.8854 6.69267 77.7333 6.31121 77.4293 6.03772C77.1398 5.74982 76.7127 5.60588 76.1481 5.60588H74.0417V8.7799Z" fill="white"/>
<path d="M67.4799 2V17.2871H62.6808V9.66516L60.3138 17.2871H56.1878L53.8208 9.66516V17.2871H49V2H54.9066L58.2942 11.1766L61.595 2H67.4799Z" fill="white"/>
<path d="M128.854 34.5608L124.771 27.932H120.927V34.5608H120.493V19.36H124.315C125.994 19.36 127.239 19.7415 128.05 20.5044C128.875 21.2673 129.288 22.3109 129.288 23.6352C129.288 24.8588 128.94 25.8376 128.246 26.5717C127.551 27.3059 126.559 27.7449 125.271 27.8888L129.396 34.5608H128.854ZM124.358 27.5218C125.85 27.5218 126.964 27.1691 127.703 26.4638C128.455 25.7584 128.832 24.8156 128.832 23.6352C128.832 21.073 127.326 19.7918 124.315 19.7918H120.927V27.5218H124.358Z" fill="white"/>
<path d="M110.738 20.2237V26.5501H116.819V27.3706H110.738V33.7403H117.47V34.5608H109.761V19.4032H117.47V20.2237H110.738Z" fill="white"/>
<path d="M106.275 34.5608H104.755L96.3508 21.8647V34.5608H94.8307V19.468H96.3508L104.755 32.1425V19.468H106.275V34.5608Z" fill="white"/>
<path d="M75.3148 32.4231H82.3289V34.5608H72.3832V32.6391L79.3756 21.6919H72.3832V19.5543H82.3289V21.476L75.3148 32.4231Z" fill="white"/>
<path d="M62.5287 19.4895C64.1212 19.4895 65.5182 19.799 66.7198 20.418C67.9359 21.0369 68.8696 21.9222 69.5211 23.0738C70.1871 24.211 70.52 25.5353 70.52 27.0467C70.52 28.5582 70.1871 29.8825 69.5211 31.0197C68.8696 32.1424 67.9359 33.0133 66.7198 33.6323C65.5182 34.2513 64.1212 34.5607 62.5287 34.5607H57.2301V19.4895H62.5287ZM62.4201 31.9913C64.0126 31.9913 65.2432 31.5595 66.1118 30.6958C66.9804 29.8321 67.4147 28.6157 67.4147 27.0467C67.4147 25.4777 66.9804 24.2542 66.1118 23.3761C65.2432 22.4836 64.0126 22.0374 62.4201 22.0374H60.2703V31.9913H62.4201Z" fill="white"/>
<path d="M86.0187 37.7953L85.9932 37.7605C85.8898 37.605 85.8162 37.4536 85.7723 37.3064C85.6983 37.057 85.6447 36.7772 85.6116 36.467C85.5687 36.0679 85.5416 35.6612 85.5302 35.2467C85.4775 33.3429 85.5608 31.4126 85.6821 29.5127C85.8633 26.6717 86.117 23.8272 86.4431 20.9792L86.4454 20.9727L86.45 20.9675L86.4561 20.9646L86.4628 20.9643L91.4015 21.766L91.4075 21.7683L91.4122 21.7727L91.4148 21.7786L91.4148 21.785C91.1485 23.1294 90.8759 24.4733 90.597 25.8166C90.2124 27.6725 89.7206 29.7555 89.1216 32.0656C89.0024 32.5256 88.8173 33.1874 88.5664 34.0511C88.3102 34.9327 88.0299 35.7532 87.7256 36.5124C87.5637 36.9163 87.3909 37.259 87.207 37.5408C86.9258 37.972 86.455 38.1854 86.0187 37.7953Z" fill="white"/>
<path d="M86.9336 17.1987L92.0683 18.0327L92.0753 18.0354L92.0807 18.0405L92.0837 18.0473L92.0839 18.0548L91.6419 20.5788C91.6411 20.5837 91.6384 20.5881 91.6344 20.591C91.6303 20.5939 91.6253 20.5951 91.6204 20.5944L86.5981 19.7789C86.5932 19.7781 86.5888 19.7754 86.5859 19.7714C86.583 19.7674 86.5817 19.7624 86.5825 19.7575L86.912 17.2149L86.9144 17.2079L86.9193 17.2023L86.9261 17.1991L86.9336 17.1987Z" fill="white"/>
<path d="M93.2838 6.59409C93.2857 6.59664 93.2875 6.59919 93.2894 6.60174C93.4052 6.83373 93.3661 7.04083 93.1721 7.22305C93.0586 7.3294 92.9627 7.42598 92.8843 7.51277C92.5476 7.88589 92.4908 8.37385 92.5957 8.85356C92.6681 9.18639 92.7953 9.54798 92.9773 9.93833C93.3129 10.6589 93.5719 11.2702 93.7541 11.7722C93.885 12.1325 93.9744 12.5127 94.022 12.913C94.1283 13.8041 93.9217 14.6714 93.4548 15.4371C93.1429 15.9488 92.7521 16.4166 92.2823 16.8407C92.2763 16.8461 92.2692 16.8501 92.2615 16.8524C92.2537 16.8546 92.2456 16.8551 92.2377 16.8537L87.126 16.0222C87.1097 16.0197 87.0981 16.0109 87.0914 15.9958C86.7812 15.2955 86.5708 14.5947 86.4602 13.8933C86.3982 13.498 86.376 13.0988 86.3936 12.6957C86.448 11.4646 86.8917 10.356 87.7248 9.36979C88.1285 8.8914 88.6059 8.4595 89.157 8.07408C89.92 7.54062 90.743 7.1096 91.6259 6.78101C92.1086 6.6015 92.4884 6.47698 92.7653 6.40746C92.9732 6.35557 93.146 6.41778 93.2838 6.59409Z" fill="white"/>
<path fill-rule="evenodd" clip-rule="evenodd" d="M132.934 18.3859C133.938 18.3859 134.752 17.5765 134.752 16.5779C134.752 15.5794 133.938 14.7699 132.934 14.7699C131.929 14.7699 131.115 15.5794 131.115 16.5779C131.115 17.5765 131.929 18.3859 132.934 18.3859ZM132.934 18.6325C134.075 18.6325 135 17.7126 135 16.5779C135 15.4432 134.075 14.5234 132.934 14.5234C131.792 14.5234 130.867 15.4432 130.867 16.5779C130.867 17.7126 131.792 18.6325 132.934 18.6325Z" fill="white"/>
<path d="M133.436 17.7285L132.864 16.7686H132.438V17.7285H132.206V15.4307H132.901C133.159 15.4307 133.354 15.492 133.486 15.6147C133.62 15.7375 133.687 15.8986 133.687 16.098C133.687 16.2645 133.639 16.407 133.542 16.5253C133.447 16.6415 133.306 16.7171 133.119 16.7522L133.714 17.7285H133.436ZM132.438 16.5812H132.904C133.085 16.5812 133.22 16.5374 133.311 16.4497C133.403 16.3621 133.449 16.2448 133.449 16.098C133.449 15.9468 133.405 15.8306 133.317 15.7495C133.229 15.6663 133.09 15.6246 132.901 15.6246H132.438V16.5812Z" fill="white"/>
</svg>
