<svg width="500" height="500" viewBox="0 0 500 500" fill="none" xmlns="http://www.w3.org/2000/svg">
<path d="M236.898 54.3152C240.158 54.1067 249.274 52.8103 249.45 57.6021C249.608 61.9577 249.481 66.6141 249.481 71.0099V107.534L249.483 242.503L249.478 275.63C249.463 280.192 249.56 284.74 249.496 289.304C249.6 292.113 247.581 293.773 244.779 293.727C235.145 293.574 225.425 293.875 215.799 293.62C215.245 293.607 212.61 292.84 212.488 292.345C211.168 286.991 211.693 279.501 211.692 273.927L211.691 247.115L211.688 172.588C211.679 162.547 211.741 152.494 211.738 142.456C211.659 140.846 211.822 138.221 210.377 137.135C208.448 135.685 206.413 135.843 204.99 137.805C202.161 141.704 199.714 145.89 197.173 149.974L178.941 179.331C175.944 184.181 172.791 189.24 169.71 194.015C165.591 200.397 157.003 188.588 153.97 185.289L136.708 166.5C134.049 163.604 131.406 160.589 128.703 157.795C126.557 155.578 124.261 156.066 122.536 158.347C118.917 163.132 115.641 168.493 112.747 173.717C97.485 201.237 90.8846 232.724 93.8093 264.058C97.6645 305.429 117.834 343.565 149.86 370.034C181.916 396.549 223.219 409.189 264.62 405.156C305.933 401.151 343.954 380.882 370.31 348.817C396.646 316.78 409.178 275.591 405.148 234.312C401.082 192.849 380.645 154.721 348.364 128.385C337.189 119.161 324.782 111.541 311.5 105.745C307.442 103.959 299.988 99.8895 299.973 107.614C299.94 122.628 299.952 137.642 299.952 152.656L299.957 241.295L299.96 272.178C299.963 275.778 300.516 290.321 298.994 292.465C296.373 294.291 289.914 293.72 286.592 293.717L268.829 293.704C265.908 293.72 262.38 293.916 262.234 289.946C261.997 283.504 262.117 277.004 262.125 270.55L262.135 231.086L262.12 99.8849C262.117 85.4725 261.862 70.8062 262.428 56.428C262.594 52.2328 283.964 56.8844 286.385 57.3711C321.623 64.3858 354.306 80.8044 380.971 104.887C418.919 139.342 441.803 187.333 444.689 238.509C447.638 290.716 429.541 341.931 394.451 380.693C359.601 419.181 310.886 442.231 259.032 444.77C207.286 447.279 156.657 429.16 118.254 394.382C79.6819 359.408 56.6205 310.516 54.1643 258.502C52.0413 206.264 70.5585 155.288 105.713 116.594C109.689 112.239 114.307 108.066 118.809 104.259C120.133 103.14 122.707 103.183 123.955 104.398C135.473 115.612 146.805 127.03 158.318 138.263C160.283 140.18 162.797 142.047 165.096 139.137C166.793 136.991 168.216 134.091 169.571 131.681L176.215 119.976L202.009 74.733C203.674 71.8013 210.063 60.1154 211.887 57.9975C216.769 56.0515 231.205 54.5784 236.898 54.3152Z" fill="black"/>
</svg>
